#!OML:ASF F:\VICON\USERDATA\INSTALL\rory3\rory3.ASF
:FULLY-SPECIFIED
:DEGREES
2328
root -9.9086 17.5491 13.7874 -540.776 3.52382 177.833
lowerback 13.0574 3.12313 1.41223
upperback 1.03752 4.52082 0.440085
thorax -6.14351 2.24128 -1.15273
lowerneck -20.1235 -1.26541 -10.9103
upperneck 34.6875 -2.35848 5.84771
head 15.8653 -2.42615 3.75674
rclavicle -1.09332e-015 1.90833e-014
rhumerus -32.6399 -15.9876 -71.8474
rradius 35.823
rwrist 4.20179
rhand -18.4888 8.6789
rfingers 7.12502
rthumb 7.79858 -21.1573
lclavicle -1.09332e-015 1.90833e-014
lhumerus -36.3386 8.62718 82.08
lradius 34.0042
lwrist -2.98725
lhand -22.1504 24.0533
lfingers 7.12502
lthumb 4.2635 53.9903
rfemur -0.43324 7.52997 6.03932
rtibia 21.0027
rfoot -21.0717 15.2397
rtoes -8.21568
lfemur -10.7215 -12.265 -11.9672
ltibia 20.8132
lfoot -8.47785 -25.7049
ltoes 5.94081
2329
root -10.0054 17.5612 13.7628 -540.763 3.90314 177.506
lowerback 13.0392 3.06733 1.084
upperback 0.970117 4.38744 0.365466
thorax -6.22636 2.17918 -1.0255
lowerneck -19.9419 -1.31752 -11.2294
upperneck 34.7025 -2.5157 6.17684
head 15.8572 -2.50691 3.92378
rclavicle 5.96354e-015 -1.35174e-014
rhumerus -32.8963 -15.964 -71.889
rradius 36.1669
rwrist 4.11112
rhand -18.3206 8.73112
rfingers 7.12502
rthumb 7.96092 -21.099
lclavicle 5.96354e-015 -1.35174e-014
lhumerus -36.4632 7.896 82.3639
lradius 34.2823
lwrist -2.68092
lhand -22.5001 24.0032
lfingers 7.12502
lthumb 3.92587 53.9467
rfemur -0.397762 7.8503 5.40343
rtibia 20.7001
rfoot -20.7313 14.8332
rtoes -8.81121
lfemur -10.6074 -12.5026 -12.7202
ltibia 20.8956
lfoot -8.64636 -25.2308
ltoes 6.13312
2330
root -10.1018 17.5737 13.737 -540.731 4.39239 177.295
lowerback 12.9787 3.02563 0.879112
upperback 0.956193 4.2949 0.313903
thorax -6.22002 2.13746 -0.945356
lowerneck -19.9782 -1.33175 -11.4088
upperneck 34.6917 -2.53793 6.34017
head 15.8681 -2.52116 4.02195
rclavicle -1.37161e-014 -4.77083e-015
rhumerus -32.9782 -16.0123 -71.9675
rradius 36.3306
rwrist 4.27391
rhand -18.1983 8.9784
rfingers 7.12502
rthumb 8.079 -20.8472
lclavicle -1.37161e-014 -4.77083e-015
lhumerus -36.2669 7.30721 82.6147
lradius 34.1923
lwrist -2.49636
lhand -22.9815 24.0538
lfingers 7.12502
lthumb 3.461 54.0054
rfemur -0.483114 8.27341 4.8963
rtibia 20.5567
rfoot -20.2593 14.5289
rtoes -8.23253
lfemur -10.4646 -12.5201 -13.3246
ltibia 20.8824
lfoot -8.6133 -24.8355
ltoes 6.91955
2331
root -10.1979 17.5834 13.7165 -540.674 4.9916 177.006
lowerback 12.9958 3.01737 0.593602
upperback 0.91677 4.23442 0.249688
thorax -6.28784 2.11197 -0.844944
lowerneck -20.1301 -1.27328 -11.3685
upperneck 34.694 -2.39869 6.23661
head 15.8857 -2.47012 3.99632
rclavicle 2.90226e-014 -2.38542e-015
rhumerus -33.012 -15.9489 -72.0773
rradius 36.5089
rwrist 4.36076
rhand -18.1741 9.18537
rfingers 7.12502
rthumb 8.10231 -20.6393
lclavicle 2.90226e-014 -2.38542e-015
lhumerus -35.9266 6.88029 82.8025
lradius 33.9624
lwrist -2.4998
lhand -23.1328 24.0339
lfingers 7.12502
lthumb 3.31488 53.9879
rfemur -0.734899 8.75591 4.31433
rtibia 20.5233
rfoot -19.7954 14.112
rtoes -7.79038
lfemur -10.3645 -12.3016 -13.9799
ltibia 20.8442
lfoot -8.60796 -24.601
ltoes 7.1097
2332
root -10.2907 17.5943 13.707 -540.582 5.5652 176.792
lowerback 13.075 3.00528 0.364938
upperback 0.823213 4.17628 0.200376
thorax -6.44456 2.08433 -0.766664
lowerneck -20.1128 -1.18123 -11.3077
upperneck 34.6522 -2.27681 6.20668
head 15.8432 -2.41699 3.99295
rclavicle -4.04527e-014 -1.59028e-015
rhumerus -33.2016 -15.7695 -72.2278
rradius 36.8449
rwrist 4.25475
rhand -18.3175 9.25067
rfingers 7.12502
rthumb 7.96391 -20.5793
lclavicle -4.04527e-014 -1.59028e-015
lhumerus -35.6602 6.55212 82.8692
lradius 33.7422
lwrist -2.6957
lhand -22.8154 23.6923
lfingers 7.12502
lthumb 3.62137 53.6412
rfemur -1.09383 9.16114 3.86117
rtibia 20.5662
rfoot -19.3528 13.448
rtoes -7.10406
lfemur -10.3812 -11.9617 -14.4681
ltibia 20.8262
lfoot -8.19714 -24.7094
ltoes 8.61579
2333
root -10.3812 17.6076 13.6983 -540.503 6.25522 176.861
lowerback 13.1304 3.01449 0.43027
upperback 0.776495 4.19551 0.199416
thorax -6.52018 2.08942 -0.812676
lowerneck -20.0719 -1.10716 -11.2871
upperneck 34.5613 -2.20889 6.30178
head 15.7795 -2.3699 4.04032
rclavicle -1.26228e-014 2.38542e-015
rhumerus -33.3339 -15.7195 -72.3992
rradius 37.0514
rwrist 4.22793
rhand -18.4163 9.49661
rfingers 7.12502
rthumb 7.86853 -20.337
lclavicle -1.26228e-014 2.38542e-015
lhumerus -35.4411 6.18446 82.8834
lradius 33.6699
lwrist -2.81166
lhand -22.5234 23.7064
lfingers 7.12502
lthumb 3.90332 53.6504
rfemur -1.55124 9.31869 3.73283
rtibia 20.7298
rfoot -18.7965 12.8247
rtoes -6.12712
lfemur -10.34 -11.4557 -14.6297
ltibia 20.8048
lfoot -7.98772 -24.8229
ltoes 9.8726
2334
root -10.4703 17.6191 13.6838 -540.451 7.11159 177.136
lowerback 13.1752 3.05994 0.672424
upperback 0.748785 4.29499 0.264511
thorax -6.56102 2.13049 -0.901506
lowerneck -20.0659 -1.12652 -11.268
upperneck 34.5388 -2.27376 6.3291
head 15.7748 -2.39512 4.03435
rclavicle -3.67752e-015 -7.15625e-015
rhumerus -33.3796 -15.651 -72.5592
rradius 37.1434
rwrist 4.31022
rhand -18.3098 9.75248
rfingers 7.12502
rthumb 7.97131 -20.0772
lclavicle -3.67752e-015 -7.15625e-015
lhumerus -35.3118 5.80638 82.8738
lradius 33.7721
lwrist -3.02635
lhand -22.52 23.9118
lfingers 7.12502
lthumb 3.90661 53.8557
rfemur -2.04356 9.415 3.87012
rtibia 20.9674
rfoot -18.3442 11.9009
rtoes -6.29791
lfemur -10.1929 -10.7036 -14.5925
ltibia 20.8272
lfoot -8.45141 -24.8903
ltoes 8.69986
